<mxfile host="app.diagrams.net" agent="Mozilla/5.0 (Windows NT 10.0; Win64; x64) AppleWebKit/537.36 (KHTML, like Gecko) Chrome/137.0.0.0 Safari/537.36" version="27.1.5">
  <diagram name="Page-1" id="74e2e168-ea6b-b213-b513-2b3c1d86103e">
    <mxGraphModel dx="1106" dy="658" grid="1" gridSize="10" guides="1" tooltips="1" connect="1" arrows="1" fold="1" page="1" pageScale="1" pageWidth="1100" pageHeight="850" background="none" math="0" shadow="0">
      <root>
        <mxCell id="0" />
        <mxCell id="1" parent="0" />
        <mxCell id="77e6c97f196da883-1" value="Pool" style="swimlane;html=1;childLayout=stackLayout;startSize=20;rounded=0;shadow=0;labelBackgroundColor=none;strokeWidth=1;fontFamily=Verdana;fontSize=8;align=center;" parent="1" vertex="1">
          <mxGeometry x="70" y="40" width="960" height="750" as="geometry" />
        </mxCell>
        <mxCell id="77e6c97f196da883-2" value="Lane 1" style="swimlane;html=1;startSize=20;" parent="77e6c97f196da883-1" vertex="1">
          <mxGeometry y="20" width="160" height="730" as="geometry" />
        </mxCell>
        <mxCell id="77e6c97f196da883-8" value="Reset" style="rounded=1;whiteSpace=wrap;html=1;shadow=0;labelBackgroundColor=none;strokeWidth=1;fontFamily=Verdana;fontSize=8;align=center;" parent="77e6c97f196da883-2" vertex="1">
          <mxGeometry x="30" y="50" width="100" height="60" as="geometry" />
        </mxCell>
        <mxCell id="cb_gdixRm3pFaMkq_u7j-2" value="&lt;font style=&quot;font-size: 8px;&quot;&gt;hasData&lt;/font&gt;" style="rhombus;whiteSpace=wrap;html=1;" parent="77e6c97f196da883-2" vertex="1">
          <mxGeometry x="40" y="140" width="80" height="80" as="geometry" />
        </mxCell>
        <mxCell id="77e6c97f196da883-26" style="edgeStyle=orthogonalEdgeStyle;rounded=1;html=1;labelBackgroundColor=none;startArrow=none;startFill=0;startSize=5;endArrow=classicThin;endFill=1;endSize=5;jettySize=auto;orthogonalLoop=1;strokeWidth=1;fontFamily=Verdana;fontSize=8;entryX=0.5;entryY=0;entryDx=0;entryDy=0;" parent="77e6c97f196da883-2" source="77e6c97f196da883-8" target="cb_gdixRm3pFaMkq_u7j-2" edge="1">
          <mxGeometry relative="1" as="geometry">
            <mxPoint x="80" y="150" as="targetPoint" />
          </mxGeometry>
        </mxCell>
        <mxCell id="77e6c97f196da883-3" value="Lane 2" style="swimlane;html=1;startSize=20;" parent="77e6c97f196da883-1" vertex="1">
          <mxGeometry x="160" y="20" width="160" height="730" as="geometry" />
        </mxCell>
        <mxCell id="cb_gdixRm3pFaMkq_u7j-7" value="SaveData" style="rounded=1;whiteSpace=wrap;html=1;shadow=0;labelBackgroundColor=none;strokeWidth=1;fontFamily=Verdana;fontSize=8;align=center;" parent="77e6c97f196da883-3" vertex="1">
          <mxGeometry x="30" y="70" width="100" height="60" as="geometry" />
        </mxCell>
        <mxCell id="cb_gdixRm3pFaMkq_u7j-16" value="" style="group" parent="77e6c97f196da883-3" vertex="1" connectable="0">
          <mxGeometry x="30" y="200" width="100" height="180" as="geometry" />
        </mxCell>
        <mxCell id="77e6c97f196da883-15" value="" style="rounded=1;whiteSpace=wrap;html=1;shadow=0;labelBackgroundColor=none;strokeWidth=1;fontFamily=Verdana;fontSize=8;align=center;" parent="cb_gdixRm3pFaMkq_u7j-16" vertex="1">
          <mxGeometry width="100" height="180" as="geometry" />
        </mxCell>
        <mxCell id="cb_gdixRm3pFaMkq_u7j-11" value="LoadDummy" style="rounded=0;whiteSpace=wrap;html=1;" parent="cb_gdixRm3pFaMkq_u7j-16" vertex="1">
          <mxGeometry x="7.5" y="20" width="85" height="30" as="geometry" />
        </mxCell>
        <mxCell id="cb_gdixRm3pFaMkq_u7j-13" value="HomePage" style="rounded=0;whiteSpace=wrap;html=1;" parent="cb_gdixRm3pFaMkq_u7j-16" vertex="1">
          <mxGeometry x="7.5" y="130" width="85" height="30" as="geometry" />
        </mxCell>
        <mxCell id="cb_gdixRm3pFaMkq_u7j-12" value="Refresh" style="rounded=0;whiteSpace=wrap;html=1;" parent="cb_gdixRm3pFaMkq_u7j-16" vertex="1">
          <mxGeometry x="7.5" y="75" width="85" height="30" as="geometry" />
        </mxCell>
        <mxCell id="cb_gdixRm3pFaMkq_u7j-9" style="edgeStyle=orthogonalEdgeStyle;rounded=0;orthogonalLoop=1;jettySize=auto;html=1;entryX=0.5;entryY=0;entryDx=0;entryDy=0;exitX=1;exitY=0.5;exitDx=0;exitDy=0;" parent="77e6c97f196da883-3" source="cb_gdixRm3pFaMkq_u7j-7" target="77e6c97f196da883-15" edge="1">
          <mxGeometry relative="1" as="geometry" />
        </mxCell>
        <mxCell id="77e6c97f196da883-4" value="Lane 3" style="swimlane;html=1;startSize=20;" parent="77e6c97f196da883-1" vertex="1">
          <mxGeometry x="320" y="20" width="160" height="730" as="geometry" />
        </mxCell>
        <mxCell id="cb_gdixRm3pFaMkq_u7j-24" value="" style="edgeStyle=orthogonalEdgeStyle;rounded=0;orthogonalLoop=1;jettySize=auto;html=1;" parent="77e6c97f196da883-4" source="cb_gdixRm3pFaMkq_u7j-20" target="cb_gdixRm3pFaMkq_u7j-22" edge="1">
          <mxGeometry relative="1" as="geometry" />
        </mxCell>
        <mxCell id="cb_gdixRm3pFaMkq_u7j-25" value="" style="edgeStyle=orthogonalEdgeStyle;rounded=0;orthogonalLoop=1;jettySize=auto;html=1;" parent="77e6c97f196da883-4" source="cb_gdixRm3pFaMkq_u7j-20" target="cb_gdixRm3pFaMkq_u7j-23" edge="1">
          <mxGeometry relative="1" as="geometry" />
        </mxCell>
        <mxCell id="cb_gdixRm3pFaMkq_u7j-20" value="WelcomeModal" style="shape=hexagon;perimeter=hexagonPerimeter2;whiteSpace=wrap;html=1;fixedSize=1;" parent="77e6c97f196da883-4" vertex="1">
          <mxGeometry x="25" y="295" width="110" height="70" as="geometry" />
        </mxCell>
        <mxCell id="cb_gdixRm3pFaMkq_u7j-37" value="" style="edgeStyle=isometricEdgeStyle;rounded=0;orthogonalLoop=1;jettySize=auto;html=1;" parent="77e6c97f196da883-4" source="cb_gdixRm3pFaMkq_u7j-22" target="cb_gdixRm3pFaMkq_u7j-35" edge="1">
          <mxGeometry relative="1" as="geometry" />
        </mxCell>
        <mxCell id="cb_gdixRm3pFaMkq_u7j-22" value="Tour" style="rounded=1;whiteSpace=wrap;html=1;" parent="77e6c97f196da883-4" vertex="1">
          <mxGeometry x="20" y="410" width="120" height="60" as="geometry" />
        </mxCell>
        <mxCell id="cb_gdixRm3pFaMkq_u7j-23" value="Skip" style="rounded=1;whiteSpace=wrap;html=1;" parent="77e6c97f196da883-4" vertex="1">
          <mxGeometry x="20" y="190" width="120" height="60" as="geometry" />
        </mxCell>
        <mxCell id="cb_gdixRm3pFaMkq_u7j-35" value="onComplete" style="rounded=1;whiteSpace=wrap;html=1;" parent="77e6c97f196da883-4" vertex="1">
          <mxGeometry x="20" y="550" width="120" height="60" as="geometry" />
        </mxCell>
        <mxCell id="77e6c97f196da883-5" value="Lane 4" style="swimlane;html=1;startSize=20;" parent="77e6c97f196da883-1" vertex="1">
          <mxGeometry x="480" y="20" width="160" height="730" as="geometry" />
        </mxCell>
        <mxCell id="cb_gdixRm3pFaMkq_u7j-26" value="&lt;font style=&quot;font-size: 8px;&quot;&gt;hasData&lt;/font&gt;" style="rhombus;whiteSpace=wrap;html=1;" parent="77e6c97f196da883-5" vertex="1">
          <mxGeometry x="40" y="180" width="80" height="80" as="geometry" />
        </mxCell>
        <mxCell id="cb_gdixRm3pFaMkq_u7j-38" value="&lt;font style=&quot;font-size: 8px;&quot;&gt;hasData&lt;/font&gt;" style="rhombus;whiteSpace=wrap;html=1;" parent="77e6c97f196da883-5" vertex="1">
          <mxGeometry x="40" y="540" width="80" height="80" as="geometry" />
        </mxCell>
        <mxCell id="77e6c97f196da883-6" value="Lane 5" style="swimlane;html=1;startSize=20;" parent="77e6c97f196da883-1" vertex="1">
          <mxGeometry x="640" y="20" width="160" height="730" as="geometry" />
        </mxCell>
        <mxCell id="cb_gdixRm3pFaMkq_u7j-33" value="Restore&lt;div&gt;Dismiss&lt;/div&gt;&lt;div&gt;MarkComplete&lt;/div&gt;" style="rounded=1;whiteSpace=wrap;html=1;" parent="77e6c97f196da883-6" vertex="1">
          <mxGeometry x="20" y="100" width="120" height="60" as="geometry" />
        </mxCell>
        <mxCell id="cb_gdixRm3pFaMkq_u7j-34" value="Dismiss&lt;div&gt;Mark Complete&lt;/div&gt;" style="rounded=1;whiteSpace=wrap;html=1;" parent="77e6c97f196da883-6" vertex="1">
          <mxGeometry x="20" y="240" width="120" height="60" as="geometry" />
        </mxCell>
        <mxCell id="cb_gdixRm3pFaMkq_u7j-45" value="Clear DB&lt;div&gt;Load Data&lt;/div&gt;&lt;div&gt;Dismiss&lt;/div&gt;&lt;div&gt;Mark Complete&lt;/div&gt;&lt;div&gt;&lt;br&gt;&lt;/div&gt;" style="rounded=1;whiteSpace=wrap;html=1;" parent="77e6c97f196da883-6" vertex="1">
          <mxGeometry x="20" y="430" width="120" height="120" as="geometry" />
        </mxCell>
        <mxCell id="cb_gdixRm3pFaMkq_u7j-46" value="Dismiss&lt;div&gt;Mark Complete&lt;/div&gt;" style="rounded=1;whiteSpace=wrap;html=1;" parent="77e6c97f196da883-6" vertex="1">
          <mxGeometry x="20" y="610" width="120" height="60" as="geometry" />
        </mxCell>
        <mxCell id="77e6c97f196da883-7" value="Lane 6" style="swimlane;html=1;startSize=20;" parent="77e6c97f196da883-1" vertex="1">
          <mxGeometry x="800" y="20" width="160" height="730" as="geometry" />
        </mxCell>
        <mxCell id="cb_gdixRm3pFaMkq_u7j-4" style="rounded=0;orthogonalLoop=1;jettySize=auto;html=1;exitX=1;exitY=0;exitDx=0;exitDy=0;entryX=0;entryY=0.5;entryDx=0;entryDy=0;" parent="77e6c97f196da883-1" source="cb_gdixRm3pFaMkq_u7j-2" target="cb_gdixRm3pFaMkq_u7j-7" edge="1">
          <mxGeometry relative="1" as="geometry">
            <mxPoint x="190" y="120" as="targetPoint" />
          </mxGeometry>
        </mxCell>
        <mxCell id="cb_gdixRm3pFaMkq_u7j-14" value="Yes" style="edgeLabel;html=1;align=center;verticalAlign=middle;resizable=0;points=[];" parent="cb_gdixRm3pFaMkq_u7j-4" vertex="1" connectable="0">
          <mxGeometry x="-0.1084" y="-2" relative="1" as="geometry">
            <mxPoint as="offset" />
          </mxGeometry>
        </mxCell>
        <mxCell id="cb_gdixRm3pFaMkq_u7j-8" style="rounded=0;orthogonalLoop=1;jettySize=auto;html=1;elbow=vertical;entryX=0;entryY=0.5;entryDx=0;entryDy=0;" parent="77e6c97f196da883-1" source="cb_gdixRm3pFaMkq_u7j-2" target="77e6c97f196da883-15" edge="1">
          <mxGeometry relative="1" as="geometry">
            <mxPoint x="190" y="290" as="targetPoint" />
          </mxGeometry>
        </mxCell>
        <mxCell id="cb_gdixRm3pFaMkq_u7j-15" value="No" style="edgeLabel;html=1;align=center;verticalAlign=middle;resizable=0;points=[];" parent="cb_gdixRm3pFaMkq_u7j-8" vertex="1" connectable="0">
          <mxGeometry x="-0.1887" y="1" relative="1" as="geometry">
            <mxPoint y="-1" as="offset" />
          </mxGeometry>
        </mxCell>
        <mxCell id="cb_gdixRm3pFaMkq_u7j-21" value="" style="edgeStyle=orthogonalEdgeStyle;rounded=0;orthogonalLoop=1;jettySize=auto;html=1;" parent="77e6c97f196da883-1" source="77e6c97f196da883-15" target="cb_gdixRm3pFaMkq_u7j-20" edge="1">
          <mxGeometry relative="1" as="geometry" />
        </mxCell>
        <mxCell id="cb_gdixRm3pFaMkq_u7j-32" value="" style="edgeStyle=orthogonalEdgeStyle;rounded=0;orthogonalLoop=1;jettySize=auto;html=1;" parent="77e6c97f196da883-1" source="cb_gdixRm3pFaMkq_u7j-23" target="cb_gdixRm3pFaMkq_u7j-26" edge="1">
          <mxGeometry relative="1" as="geometry" />
        </mxCell>
        <mxCell id="cb_gdixRm3pFaMkq_u7j-28" style="rounded=0;orthogonalLoop=1;jettySize=auto;html=1;exitX=1;exitY=0;exitDx=0;exitDy=0;entryX=0;entryY=1;entryDx=0;entryDy=0;" parent="77e6c97f196da883-1" source="cb_gdixRm3pFaMkq_u7j-26" target="cb_gdixRm3pFaMkq_u7j-33" edge="1">
          <mxGeometry relative="1" as="geometry">
            <mxPoint x="670" y="160" as="targetPoint" />
          </mxGeometry>
        </mxCell>
        <mxCell id="cb_gdixRm3pFaMkq_u7j-29" value="Yes" style="edgeLabel;html=1;align=center;verticalAlign=middle;resizable=0;points=[];" parent="cb_gdixRm3pFaMkq_u7j-28" vertex="1" connectable="0">
          <mxGeometry x="-0.1084" y="-2" relative="1" as="geometry">
            <mxPoint as="offset" />
          </mxGeometry>
        </mxCell>
        <mxCell id="cb_gdixRm3pFaMkq_u7j-30" style="rounded=0;orthogonalLoop=1;jettySize=auto;html=1;elbow=vertical;entryX=0;entryY=0.5;entryDx=0;entryDy=0;" parent="77e6c97f196da883-1" source="cb_gdixRm3pFaMkq_u7j-26" target="cb_gdixRm3pFaMkq_u7j-34" edge="1">
          <mxGeometry relative="1" as="geometry">
            <mxPoint x="670" y="350" as="targetPoint" />
          </mxGeometry>
        </mxCell>
        <mxCell id="cb_gdixRm3pFaMkq_u7j-31" value="No" style="edgeLabel;html=1;align=center;verticalAlign=middle;resizable=0;points=[];" parent="cb_gdixRm3pFaMkq_u7j-30" vertex="1" connectable="0">
          <mxGeometry x="-0.1887" y="1" relative="1" as="geometry">
            <mxPoint y="-1" as="offset" />
          </mxGeometry>
        </mxCell>
        <mxCell id="cb_gdixRm3pFaMkq_u7j-44" value="" style="edgeStyle=orthogonalEdgeStyle;rounded=0;orthogonalLoop=1;jettySize=auto;html=1;" parent="77e6c97f196da883-1" source="cb_gdixRm3pFaMkq_u7j-35" target="cb_gdixRm3pFaMkq_u7j-38" edge="1">
          <mxGeometry relative="1" as="geometry" />
        </mxCell>
        <mxCell id="cb_gdixRm3pFaMkq_u7j-40" style="rounded=0;orthogonalLoop=1;jettySize=auto;html=1;exitX=1;exitY=0;exitDx=0;exitDy=0;entryX=0;entryY=0.5;entryDx=0;entryDy=0;" parent="77e6c97f196da883-1" source="cb_gdixRm3pFaMkq_u7j-38" target="cb_gdixRm3pFaMkq_u7j-45" edge="1">
          <mxGeometry relative="1" as="geometry">
            <mxPoint x="660" y="540" as="targetPoint" />
          </mxGeometry>
        </mxCell>
        <mxCell id="cb_gdixRm3pFaMkq_u7j-41" value="Yes" style="edgeLabel;html=1;align=center;verticalAlign=middle;resizable=0;points=[];" parent="cb_gdixRm3pFaMkq_u7j-40" vertex="1" connectable="0">
          <mxGeometry x="-0.1084" y="-2" relative="1" as="geometry">
            <mxPoint as="offset" />
          </mxGeometry>
        </mxCell>
        <mxCell id="cb_gdixRm3pFaMkq_u7j-42" style="rounded=0;orthogonalLoop=1;jettySize=auto;html=1;elbow=vertical;entryX=0;entryY=0.5;entryDx=0;entryDy=0;" parent="77e6c97f196da883-1" source="cb_gdixRm3pFaMkq_u7j-38" target="cb_gdixRm3pFaMkq_u7j-46" edge="1">
          <mxGeometry relative="1" as="geometry">
            <mxPoint x="660" y="650" as="targetPoint" />
          </mxGeometry>
        </mxCell>
        <mxCell id="cb_gdixRm3pFaMkq_u7j-43" value="No" style="edgeLabel;html=1;align=center;verticalAlign=middle;resizable=0;points=[];" parent="cb_gdixRm3pFaMkq_u7j-42" vertex="1" connectable="0">
          <mxGeometry x="-0.1887" y="1" relative="1" as="geometry">
            <mxPoint y="-1" as="offset" />
          </mxGeometry>
        </mxCell>
      </root>
    </mxGraphModel>
  </diagram>
</mxfile>
